<svg width="325" height="48" viewBox="0 0 325 48" fill="none" xmlns="http://www.w3.org/2000/svg">
<g clip-path="url(#clip0_40504_4624)">
<g clip-path="url(#clip1_40504_4624)">
<path d="M102.975 25.1004C103.617 11.9289 93.4563 0.730956 80.2803 0.0890671C67.1042 -0.552822 55.9024 9.60442 55.2603 22.7759C54.6182 35.9474 64.7789 47.1454 77.955 47.7872C91.131 48.4291 102.333 38.2719 102.975 25.1004Z" fill="white"/>
<path d="M102.975 25.1004C103.617 11.9289 93.4563 0.730956 80.2803 0.0890671C67.1042 -0.552822 55.9024 9.60442 55.2603 22.7759C54.6182 35.9474 64.7789 47.1454 77.955 47.7872C91.131 48.4291 102.333 38.2719 102.975 25.1004Z" fill="white"/>
<path d="M91.6353 36.5713C98.613 29.596 98.613 18.2868 91.6353 11.3115C84.6576 4.33615 73.3444 4.33615 66.3667 11.3115C59.389 18.2868 59.389 29.596 66.3667 36.5713C73.3444 43.5467 84.6576 43.5467 91.6353 36.5713Z" fill="white"/>
<path d="M-0.175781 47.9375L-0.175781 0.0625H23.7712C36.9878 0.0625 47.7182 10.7892 47.7182 24.0012C47.7157 37.2108 36.9854 47.9375 23.7712 47.9375H-0.175781Z" fill="white"/>
<path d="M300.231 0.0625C287.006 0.0625 276.285 10.7797 276.285 24C276.285 37.2203 287.006 47.9375 300.231 47.9375C313.456 47.9375 324.177 37.2203 324.177 24C324.177 10.7797 313.456 0.0625 300.231 0.0625Z" fill="white"/>
<path d="M110.41 24.0007V0.0619965H158.302V24.0007C158.302 37.2128 147.571 47.9395 134.355 47.9395C121.141 47.937 110.41 37.2128 110.41 24.0007Z" fill="white"/>
<path opacity="0.5" d="M110.409 24.0007V6.1393H158.3V24.0007C158.3 37.2128 147.57 47.9395 134.353 47.9395C121.137 47.9395 110.406 37.2128 110.406 24.0007H110.409Z" fill="white"/>
<path d="M152.223 6.13672V23.9981C152.223 33.8636 144.222 41.8596 134.356 41.8596C124.487 41.8596 116.488 33.8612 116.488 23.9981V6.13672H152.226H152.223Z" fill="white"/>
<path d="M213.592 24.0012V47.94H165.7V24.0012C165.7 10.7892 176.431 0.0625 189.647 0.0625C202.861 0.0625 213.592 10.7892 213.592 24.0012Z" fill="white"/>
<path opacity="0.5" d="M213.593 24.0012V41.8627H165.702V24.0012C165.702 10.7892 176.432 0.0625 189.649 0.0625C202.865 0.0625 213.596 10.7892 213.596 24.0012H213.593Z" fill="white"/>
<path d="M171.778 41.8635V24.0021C171.778 14.1366 179.779 6.14062 189.645 6.14062C199.514 6.14062 207.513 14.139 207.513 24.0021V41.8635H171.775H171.778Z" fill="white"/>
<path d="M244.94 47.9375L220.993 47.9375V0.0625L244.94 0.0625C258.156 0.0625 268.887 10.7892 268.887 24.0012C268.887 37.2108 258.156 47.9375 244.94 47.9375Z" fill="white"/>
<path opacity="0.5" d="M244.94 47.9375L227.072 47.9375V0.0625L244.94 0.0625C258.156 0.0625 268.887 10.7892 268.887 24.0012C268.887 37.2108 258.156 47.9375 244.94 47.9375Z" fill="white"/>
<path d="M227.068 6.13722H244.936C254.805 6.13722 262.804 14.1356 262.804 23.9986C262.804 33.8641 254.802 41.8601 244.936 41.8601H227.068V6.13477V6.13722Z" fill="white"/>
<path d="M220.992 47.9409V0.0659027H244.939C258.156 0.0659027 268.886 10.7926 268.886 24.0046C268.886 37.2167 258.156 47.9434 244.939 47.9434H220.992V47.9409Z" fill="white"/>
<path d="M102.852 25.1024C103.494 11.9309 93.3332 0.732909 80.1572 0.0910202C66.9812 -0.550869 55.7794 9.60638 55.1373 22.7779C54.4951 35.9494 64.6559 47.1473 77.8319 47.7892C91.0079 48.4311 102.21 38.2738 102.852 25.1024Z" fill="white"/>
</g>
</g>
<defs>
<clipPath id="clip0_40504_4624">
<rect width="324.353" height="47.875" fill="white"/>
</clipPath>
<clipPath id="clip1_40504_4624">
<rect width="324.353" height="47.875" fill="white" transform="translate(-0.175781 0.0625)"/>
</clipPath>
</defs>
</svg>
